# Rhino

mtllib model_test.mtl
usemtl wood
v 14.586028099060059 11.062013626098633 -0.22269201278686523
v 14.586028099060059 20.782966613769531 -0.22269201278686523
v 26.468305587768555 11.062013626098633 -0.22269201278686523
v 26.468305587768555 20.782966613769531 -0.22269201278686523
v 26.468305587768555 11.062013626098633 -0.22269201278686523
v 26.468305587768555 20.782966613769531 -0.22269201278686523
v 26.468305587768555 11.062013626098633 -8.8675823211669922
v 26.468305587768555 20.782966613769531 -8.8675823211669922
v 26.468305587768555 11.062013626098633 -8.8675823211669922
v 26.468305587768555 20.782966613769531 -8.8675823211669922
v 14.586028099060059 20.782966613769531 -8.8675823211669922
v 22.554981231689453 11.062013626098633 -8.8675823211669922
v 22.554981231689453 13.17747974395752 -8.8675823211669922
v 17.147478103637695 13.17747974395752 -8.8675823211669922
v 17.147478103637695 17.326438903808594 -8.8675823211669922
v 14.586028099060059 17.326438903808594 -8.8675823211669922
v 14.586028099060059 20.782966613769531 -8.8675823211669922
v 14.586028099060059 11.062013626098633 -0.22269201278686523
v 14.586028099060059 20.782966613769531 -0.22269201278686523
v 14.586028099060059 17.326438903808594 -3.824385404586792
v 14.586028099060059 11.062013626098633 -3.824385404586792
v 14.586028099060059 17.326438903808594 -8.8675823211669922
v 14.586028099060059 11.062013626098633 -0.22269201278686523
v 26.468305587768555 11.062013626098633 -0.22269201278686523
v 26.468305587768555 11.062013626098633 -8.8675823211669922
v 22.554981231689453 11.062013626098633 -8.8675823211669922
v 22.554981231689453 11.062013626098633 -5.2210750579833984
v 17.147478103637695 11.062013626098633 -5.2210750579833984
v 17.147478103637695 11.062013626098633 -3.824385404586792
v 14.586028099060059 11.062013626098633 -3.824385404586792
v 14.586028099060059 20.782966613769531 -0.22269201278686523
v 14.586028099060059 20.782966613769531 -8.8675823211669922
v 26.468305587768555 20.782966613769531 -0.22269201278686523
v 26.468305587768555 20.782966613769531 -8.8675823211669922
v 11.88227653503418 3.4565267562866211 -5.2210750579833984
v 22.554981231689453 3.4565267562866211 -5.2210750579833984
v 22.554981231689453 11.062013626098633 -5.2210750579833984
v 17.147478103637695 7.6054868698120117 -5.2210750579833984
v 11.88227653503418 7.6054868698120117 -5.2210750579833984
v 17.147478103637695 11.062013626098633 -5.2210750579833984
v 22.554981231689453 3.4565267562866211 -13.865964889526367
v 22.554981231689453 13.17747974395752 -13.865964889526367
v 10.672703742980957 3.4565267562866211 -13.865964889526367
v 10.672703742980957 13.17747974395752 -13.865964889526367
v 10.672703742980957 3.4565267562866211 -13.865964889526367
v 10.672703742980957 13.17747974395752 -13.865964889526367
v 10.672703742980957 3.4565267562866211 -8.6448898315429688
v 10.672703742980957 13.17747974395752 -12.46927547454834
v 10.672703742980957 7.6054868698120117 -12.46927547454834
v 10.672703742980957 7.6054868698120117 -8.6448898315429688
v 10.672703742980957 3.4565267562866211 -13.865964889526367
v 22.554981231689453 3.4565267562866211 -5.2210750579833984
v 22.554981231689453 3.4565267562866211 -13.865964889526367
v 10.672703742980957 3.4565267562866211 -8.6448898315429688
v 11.88227653503418 3.4565267562866211 -8.6448898315429688
v 11.88227653503418 3.4565267562866211 -5.2210750579833984
v 5.2652006149291992 17.326438903808594 -3.824385404586792
v 17.147478103637695 7.6054868698120117 -3.824385404586792
v 17.147478103637695 11.062013626098633 -3.824385404586792
v 14.586028099060059 17.326438903808594 -3.824385404586792
v 11.88227653503418 9.7209529876708984 -3.824385404586792
v 11.88227653503418 7.6054868698120117 -3.824385404586792
v 5.2652006149291992 9.7209529876708984 -3.824385404586792
v 14.586028099060059 11.062013626098633 -3.824385404586792
v 5.2652006149291992 7.6054868698120117 -12.46927547454834
v 5.2652006149291992 17.326438903808594 -12.46927547454834
v 5.2652006149291992 17.326438903808594 -3.824385404586792
v 5.2652006149291992 7.6054868698120117 -8.6448898315429688
v 5.2652006149291992 9.7209529876708984 -8.6448898315429688
v 5.2652006149291992 9.7209529876708984 -3.824385404586792
v 0 0 0
v 0 9.7209529876708984 0
v 11.88227653503418 0 0
v 11.88227653503418 9.7209529876708984 0
v 0 0 -8.6448898315429688
v 0 9.7209529876708984 -8.6448898315429688
v 0 0 0
v 0 9.7209529876708984 0
v 0 0 0
v 0 0 -8.6448898315429688
v 11.88227653503418 0 0
v 11.88227653503418 0 -8.6448898315429688
v 11.88227653503418 0 0
v 11.88227653503418 9.7209529876708984 0
v 11.88227653503418 0 -8.6448898315429688
v 11.88227653503418 3.4565267562866211 -8.6448898315429688
v 11.88227653503418 9.7209529876708984 -3.824385404586792
v 11.88227653503418 7.6054868698120117 -3.824385404586792
v 11.88227653503418 3.4565267562866211 -5.2210750579833984
v 11.88227653503418 7.6054868698120117 -5.2210750579833984
v 0 9.7209529876708984 0
v 0 9.7209529876708984 -8.6448898315429688
v 11.88227653503418 9.7209529876708984 0
v 11.88227653503418 9.7209529876708984 -3.824385404586792
v 5.2652006149291992 9.7209529876708984 -3.824385404586792
v 5.2652006149291992 9.7209529876708984 -8.6448898315429688
v 17.147478103637695 7.6054868698120117 -3.824385404586792
v 17.147478103637695 11.062013626098633 -3.824385404586792
v 17.147478103637695 7.6054868698120117 -5.2210750579833984
v 17.147478103637695 11.062013626098633 -5.2210750579833984
v 17.147478103637695 17.326438903808594 -12.46927547454834
v 5.2652006149291992 7.6054868698120117 -12.46927547454834
v 5.2652006149291992 17.326438903808594 -12.46927547454834
v 10.672703742980957 13.17747974395752 -12.46927547454834
v 10.672703742980957 7.6054868698120117 -12.46927547454834
v 17.147478103637695 13.17747974395752 -12.46927547454834
v 5.2652006149291992 7.6054868698120117 -12.46927547454834
v 10.672703742980957 7.6054868698120117 -12.46927547454834
v 5.2652006149291992 7.6054868698120117 -8.6448898315429688
v 10.672703742980957 7.6054868698120117 -8.6448898315429688
v 11.88227653503418 7.6054868698120117 -3.824385404586792
v 17.147478103637695 7.6054868698120117 -3.824385404586792
v 17.147478103637695 7.6054868698120117 -5.2210750579833984
v 11.88227653503418 7.6054868698120117 -5.2210750579833984
v 11.88227653503418 0 -8.6448898315429688
v 0 0 -8.6448898315429688
v 0 9.7209529876708984 -8.6448898315429688
v 11.88227653503418 3.4565267562866211 -8.6448898315429688
v 5.2652006149291992 9.7209529876708984 -8.6448898315429688
v 5.2652006149291992 7.6054868698120117 -8.6448898315429688
v 10.672703742980957 7.6054868698120117 -8.6448898315429688
v 10.672703742980957 3.4565267562866211 -8.6448898315429688
v 22.554981231689453 3.4565267562866211 -5.2210750579833984
v 22.554981231689453 3.4565267562866211 -13.865964889526367
v 22.554981231689453 13.17747974395752 -13.865964889526367
v 22.554981231689453 11.062013626098633 -5.2210750579833984
v 22.554981231689453 13.17747974395752 -8.8675823211669922
v 22.554981231689453 11.062013626098633 -8.8675823211669922
v 10.672703742980957 13.17747974395752 -13.865964889526367
v 22.554981231689453 13.17747974395752 -13.865964889526367
v 10.672703742980957 13.17747974395752 -12.46927547454834
v 17.147478103637695 13.17747974395752 -12.46927547454834
v 17.147478103637695 13.17747974395752 -8.8675823211669922
v 22.554981231689453 13.17747974395752 -8.8675823211669922
v 5.2652006149291992 17.326438903808594 -3.824385404586792
v 5.2652006149291992 17.326438903808594 -12.46927547454834
v 17.147478103637695 17.326438903808594 -12.46927547454834
v 14.586028099060059 17.326438903808594 -3.824385404586792
v 14.586028099060059 17.326438903808594 -8.8675823211669922
v 17.147478103637695 17.326438903808594 -8.8675823211669922
v 17.147478103637695 13.17747974395752 -8.8675823211669922
v 17.147478103637695 17.326438903808594 -8.8675823211669922
v 17.147478103637695 17.326438903808594 -12.46927547454834
v 17.147478103637695 13.17747974395752 -12.46927547454834
vt 0.49429792165756226 0.60598897933959961
vt 0.33050850033760071 0.60598897933959961
vt 0.49429792165756226 0.80652046203613281
vt 0.33050850033760071 0.80652046203613281
vt 0.33050850033760071 0.2019963264465332
vt 0.33050850033760071 0.36725059151649475
vt 0.47746992111206055 0.2019963264465332
vt 0.47746992111206055 0.36725059151649475
vt 0.63890022039413452 0.40399265289306641
vt 0.47364595532417297 0.40399265289306641
vt 0.47364595532417297 0.60452413558959961
vt 0.63890022039413452 0.47003597021102905
vt 0.60293769836425781 0.47003597021102905
vt 0.60293769836425781 0.56129580736160278
vt 0.53240621089935303 0.56129580736160278
vt 0.53240621089935303 0.60452413558959961
vt 0.66101700067520142 0.56854575872421265
vt 0.82627123594284058 0.7155071496963501
vt 0.66101700067520142 0.7155071496963501
vt 0.71977728605270386 0.65427911281585693
vt 0.82627123594284058 0.65427911281585693
vt 0.71977728605270386 0.56854575872421265
vt 0.312215656042099 0.19116371870040894
vt 0.312215656042099 0.39316004514694214
vt 0.16525425016880035 0.39316004514694214
vt 0.16525425016880035 0.32663431763648987
vt 0.22724413871765137 0.32663431763648987
vt 0.22724413871765137 0.23470783233642578
vt 0.25098758935928345 0.23470783233642578
vt 0.25098758935928345 0.19116371870040894
vt 0.14696140587329865 0.19116371870040894
vt 0 0.19116371870040894
vt 0.14696140587329865 0.39316004514694214
vt 0 0.39316004514694214
vt 0.12929175794124603 0
vt 0.12929175794124603 0.18143382668495178
vt 0 0.18143382668495178
vt 0.058760263025760651 0.089507356286048889
vt 0.058760263025760651 0
vt 0 0.089507356286048889
vt 0.32904365658760071 0.60598897933959961
vt 0.16525425016880035 0.60598897933959961
vt 0.32904365658760071 0.80652046203613281
vt 0.16525425016880035 0.80652046203613281
vt 0.82627123594284058 0
vt 0.82627123594284058 0.16525425016880035
vt 0.91356366872787476 0
vt 0.84962284564971924 0.16525425016880035
vt 0.84962284564971924 0.070531494915485382
vt 0.91356366872787476 0.070531494915485382
vt 0.49576276540756226 0
vt 0.64272415637969971 0.2005314826965332
vt 0.49576276540756226 0.2005314826965332
vt 0.58451998233795166 0
vt 0.58451998233795166 0.020413383841514587
vt 0.64272415637969971 0.020413383841514587
vt 0.66101700067520142 0
vt 0.82480639219284058 0.2019963264465332
vt 0.76656699180603027 0.2019963264465332
vt 0.66101700067520142 0.15845221281051636
vt 0.78916269540786743 0.11248897761106491
vt 0.82480639219284058 0.11248897761106491
vt 0.78916269540786743 0
vt 0.76656699180603027 0.15845221281051636
vt 0.82627123594284058 0.32910621166229248
vt 0.66101700067520142 0.32910621166229248
vt 0.66101700067520142 0.47606763243675232
vt 0.82627123594284058 0.39412000775337219
vt 0.79030877351760864 0.39412000775337219
vt 0.79030877351760864 0.47606763243675232
vt 0.16378940641880035 0.60598897933959961
vt 0 0.60598897933959961
vt 0.16378940641880035 0.80652046203613281
vt 0 0.80652046203613281
vt 0.99576276540756226 0.56854575872421265
vt 0.8305085301399231 0.56854575872421265
vt 0.99576276540756226 0.7155071496963501
vt 0.8305085301399231 0.7155071496963501
vt 0.47746992111206055 0
vt 0.33050850033760071 0
vt 0.47746992111206055 0.2005314826965332
vt 0.33050850033760071 0.2005314826965332
vt 0.99576276540756226 0.32910621166229248
vt 0.8305085301399231 0.32910621166229248
vt 0.99576276540756226 0.47606763243675232
vt 0.93700248003005981 0.47606763243675232
vt 0.8305085301399231 0.39412000775337219
vt 0.86647099256515503 0.39412000775337219
vt 0.93700248003005981 0.41786345839500427
vt 0.86647099256515503 0.41786345839500427
vt 0.64272415637969971 0.2019963264465332
vt 0.49576276540756226 0.2019963264465332
vt 0.64272415637969971 0.40252780914306641
vt 0.57771039009094238 0.40252780914306641
vt 0.57771039009094238 0.29085460305213928
vt 0.49576276540756226 0.29085460305213928
vt 0.38926875591278076 0.40399265289306641
vt 0.33050850033760071 0.40399265289306641
vt 0.38926875591278076 0.42773610353469849
vt 0.33050850033760071 0.42773610353469849
vt 0.49576276540756226 0.60598897933959961
vt 0.65955215692520142 0.80652046203613281
vt 0.49576276540756226 0.80652046203613281
vt 0.56566905975341797 0.71526062488555908
vt 0.65955215692520142 0.71526062488555908
vt 0.56566905975341797 0.60598897933959961
vt 0.39993104338645935 0.47279652953147888
vt 0.39993104338645935 0.56472301483154297
vt 0.46494480967521667 0.47279652953147888
vt 0.46494480967521667 0.56472301483154297
vt 0.33050850033760071 0.43839457631111145
vt 0.42001587152481079 0.43839457631111145
vt 0.42001587152481079 0.46213802695274353
vt 0.33050850033760071 0.46213802695274353
vt 0.32082617282867432 0.40399265289306641
vt 0.32082617282867432 0.60452413558959961
vt 0.15557193756103516 0.60452413558959961
vt 0.26206591725349426 0.40399265289306641
vt 0.15557193756103516 0.51566588878631592
vt 0.19153442978858948 0.51566588878631592
vt 0.19153442978858948 0.42440605163574219
vt 0.26206591725349426 0.42440605163574219
vt 0.15468429028987885 0
vt 0.30164569616317749 0
vt 0.30164569616317749 0.16525425016880035
vt 0.15468429028987885 0.12929175794124603
vt 0.21667417883872986 0.16525425016880035
vt 0.21667417883872986 0.12929175794124603
vt 0.91502851247787476 0
vt 0.91502851247787476 0.2019963264465332
vt 0.93836259841918945 0
vt 0.93836259841918945 0.11006986349821091
vt 0.99853515625 0.11006986349821091
vt 0.99853515625 0.2019963264465332
vt 0.14696140587329865 0.40399265289306641
vt 0 0.40399265289306641
vt 0 0.60452413558959961
vt 0.14696140587329865 0.56129580736160278
vt 0.06122807040810585 0.56129580736160278
vt 0.06122807040810585 0.60452413558959961
vt 0.33050850033760071 0.47279652953147888
vt 0.33050850033760071 0.54332798719406128
vt 0.39173656702041626 0.54332798719406128
vt 0.39173656702041626 0.47279652953147888
vn 0 0 1
vn 0 0 1
vn 0 0 1
vn 0 0 1
vn 1 0 0
vn 1 0 0
vn 1 0 0
vn 1 0 0
vn 0 0 -1
vn 0 0 -1
vn 0 0 -1
vn 0 0 -1
vn 0 0 -1
vn 0 0 -1
vn 0 0 -1
vn 0 0 -1
vn -1 0 0
vn -1 0 0
vn -1 0 0
vn -1 0 0
vn -1 0 0
vn -1 0 0
vn 0 -1 0
vn 0 -1 0
vn 0 -1 0
vn 0 -1 0
vn 0 -1 0
vn 0 -1 0
vn 0 -1 0
vn 0 -1 0
vn 0 1 0
vn 0 1 0
vn 0 1 0
vn 0 1 0
vn 0 0 1
vn 0 0 1
vn 0 0 1
vn 0 0 1
vn 0 0 1
vn 0 0 1
vn 0 0 -1
vn 0 0 -1
vn 0 0 -1
vn 0 0 -1
vn -1 0 0
vn -1 0 0
vn -1 0 0
vn -1 0 0
vn -1 0 0
vn -1 0 0
vn 0 -1 0
vn 0 -1 0
vn 0 -1 0
vn 0 -1 0
vn 0 -1 0
vn 0 -1 0
vn 0 0 1
vn 0 0 1
vn 0 0 1
vn 0 0 1
vn 0 0 1
vn 0 0 1
vn 0 0 1
vn 0 0 1
vn -1 0 0
vn -1 0 0
vn -1 0 0
vn -1 0 0
vn -1 0 0
vn -1 0 0
vn 0 0 1
vn 0 0 1
vn 0 0 1
vn 0 0 1
vn -1 0 0
vn -1 0 0
vn -1 0 0
vn -1 0 0
vn 0 -1 0
vn 0 -1 0
vn 0 -1 0
vn 0 -1 0
vn 1 0 0
vn 1 0 0
vn 1 0 0
vn 1 0 0
vn 1 0 0
vn 1 0 0
vn 1 0 0
vn 1 0 0
vn 0 1 0
vn 0 1 0
vn 0 1 0
vn 0 1 0
vn 0 1 0
vn 0 1 0
vn 1 0 0
vn 1 0 0
vn 1 0 0
vn 1 0 0
vn 0 0 -1
vn 0 0 -1
vn 0 0 -1
vn 0 0 -1
vn 0 0 -1
vn 0 0 -1
vn 0 -1 0
vn 0 -1 0
vn 0 -1 0
vn 0 -1 0
vn 0 -1 0
vn 0 -1 0
vn 0 -1 0
vn 0 -1 0
vn 0 0 -1
vn 0 0 -1
vn 0 0 -1
vn 0 0 -1
vn 0 0 -1
vn 0 0 -1
vn 0 0 -1
vn 0 0 -1
vn 1 0 0
vn 1 0 0
vn 1 0 0
vn 1 0 0
vn 1 0 0
vn 1 0 0
vn 0 1 0
vn 0 1 0
vn 0 1 0
vn 0 1 0
vn 0 1 0
vn 0 1 0
vn 0 1 0
vn 0 1 0
vn 0 1 0
vn 0 1 0
vn 0 1 0
vn 0 1 0
vn 1 0 0
vn 1 0 0
vn 1 0 0
vn 1 0 0
f 2/2/2 1/1/1 3/3/3 4/4/4
f 6/6/6 5/5/5 7/7/7 8/8/8
f 13/13/13 9/9/9 12/12/12
f 15/15/15 10/10/10 13/13/13
f 9/9/9 13/13/13 10/10/10
f 13/13/13 14/14/14 15/15/15
f 15/15/15 16/16/16 11/11/11
f 10/10/10 15/15/15 11/11/11
f 20/20/20 17/17/17 22/22/22
f 18/18/18 19/19/19 20/20/20 21/21/21
f 17/17/17 20/20/20 19/19/19
f 30/30/30 29/29/29 23/23/23
f 24/24/24 23/23/23 29/29/29
f 28/28/28 27/27/27 29/29/29
f 25/25/25 24/24/24 27/27/27
f 29/29/29 27/27/27 24/24/24
f 27/27/27 26/26/26 25/25/25
f 32/32/32 31/31/31 33/33/33 34/34/34
f 39/39/39 35/35/35 38/38/38
f 36/36/36 38/38/38 35/35/35
f 40/40/40 38/38/38 37/37/37
f 36/36/36 37/37/37 38/38/38
f 42/42/42 41/41/41 43/43/43 44/44/44
f 46/46/46 45/45/45 49/49/49
f 45/45/45 47/47/47 50/50/50 49/49/49
f 48/48/48 46/46/46 49/49/49
f 51/51/51 55/55/55 54/54/54
f 53/53/53 55/55/55 51/51/51
f 55/55/55 53/53/53 52/52/52
f 56/56/56 55/55/55 52/52/52
f 60/60/60 57/57/57 61/61/61
f 63/63/63 61/61/61 57/57/57
f 61/61/61 62/62/62 58/58/58
f 59/59/59 64/64/64 58/58/58
f 61/61/61 58/58/58 64/64/64
f 61/61/61 64/64/64 60/60/60
f 69/69/69 66/66/66 65/65/65
f 68/68/68 69/69/69 65/65/65
f 67/67/67 69/69/69 70/70/70
f 66/66/66 69/69/69 67/67/67
f 72/72/72 71/71/71 73/73/73 74/74/74
f 76/76/76 75/75/75 77/77/77 78/78/78
f 80/80/80 82/82/82 81/81/81 79/79/79
f 84/84/84 83/83/83 88/88/88
f 89/89/89 88/88/88 83/83/83
f 88/88/88 87/87/87 84/84/84
f 86/86/86 89/89/89 85/85/85
f 83/83/83 85/85/85 89/89/89
f 88/88/88 89/89/89 90/90/90
f 92/92/92 91/91/91 95/95/95
f 91/91/91 93/93/93 94/94/94 95/95/95
f 96/96/96 92/92/92 95/95/95
f 98/98/98 97/97/97 99/99/99 100/100/100
f 104/104/104 101/101/101 106/106/106
f 102/102/102 103/103/103 104/104/104 105/105/105
f 101/101/101 104/104/104 103/103/103
f 107/107/107 108/108/108 110/110/110 109/109/109
f 114/114/114 113/113/113 112/112/112 111/111/111
f 122/122/122 118/118/118 115/115/115
f 120/120/120 121/121/121 122/122/122
f 122/122/122 115/115/115 116/116/116
f 117/117/117 120/120/120 116/116/116
f 122/122/122 116/116/116 120/120/120
f 120/120/120 117/117/117 119/119/119
f 126/126/126 123/123/123 128/128/128
f 124/124/124 128/128/128 123/123/123
f 127/127/127 128/128/128 125/125/125
f 124/124/124 125/125/125 128/128/128
f 132/132/132 129/129/129 131/131/131
f 134/134/134 130/130/130 132/132/132 133/133/133
f 129/129/129 132/132/132 130/130/130
f 136/136/136 135/135/135 139/139/139
f 138/138/138 139/139/139 135/135/135
f 137/137/137 136/136/136 139/139/139
f 139/139/139 140/140/140 137/137/137
f 142/142/142 141/141/141 144/144/144 143/143/143
